<svg width="24" height="24" viewBox="0 0 24 24" fill="none" xmlns="http://www.w3.org/2000/svg">
<path d="M9.79149 4.49024C9.65082 4.54151 9.46795 4.62574 9.38707 4.67701C9.30618 4.73194 8.85956 5.16774 8.39183 5.64749C7.692 6.36894 7.50913 6.5374 7.33681 6.62163L7.12933 6.72417L5.61713 6.74248L4.10493 6.76079L3.86228 6.8853C3.59149 7.0208 3.3418 7.25885 3.19762 7.5152C2.98661 7.88874 2.99365 7.61774 3.0042 13.4662L3.01475 18.8094L3.09212 19.0035C3.26092 19.4356 3.60204 19.7725 4.02757 19.9263C4.2245 19.9996 4.31945 19.9996 11.993 19.9996C20.623 19.9996 19.9162 20.0216 20.3241 19.7469C20.5668 19.5821 20.7953 19.2964 20.9079 19.0035L20.9853 18.8094L20.9958 13.4662C21.0064 7.61774 21.0134 7.88874 20.8024 7.5152C20.6617 7.26251 20.412 7.02447 20.1412 6.8853L19.8951 6.76079L18.3829 6.74248L16.8707 6.72417L16.6632 6.62163C16.4909 6.54106 16.301 6.36527 15.573 5.61453C14.8767 4.89674 14.6481 4.68433 14.4934 4.60376C14.0889 4.39868 14.0784 4.39868 11.9824 4.39868L10.0482 4.40234L9.79149 4.49024ZM12.8159 8.37581C13.7408 8.55892 14.5074 8.98373 15.1826 9.69054C15.8297 10.3644 16.2236 11.1261 16.4205 12.0893C16.5085 12.5141 16.5049 13.4479 16.417 13.8764C15.9563 16.1177 14.1558 17.6558 12 17.6558C10.4843 17.6558 9.10573 16.8867 8.24765 15.5683C7.96631 15.1362 7.69904 14.455 7.57947 13.8727C7.49155 13.4479 7.49507 12.5141 7.57947 12.0893C8.00148 10.0348 9.52422 8.58089 11.5288 8.31722C11.8453 8.27693 12.4501 8.30257 12.8159 8.37581ZM18.3231 9.15586C18.8084 9.41587 18.8963 10.0641 18.4954 10.4303C18.0136 10.8698 17.2575 10.5182 17.261 9.85533C17.261 9.53672 17.4263 9.26572 17.6971 9.14487C17.8729 9.0643 18.1648 9.07163 18.3231 9.15586Z" fill="#EDEBEF"/>
<path d="M11.3986 9.11926C11.0926 9.17785 10.6882 9.30969 10.4385 9.43054C8.75751 10.2362 7.88536 12.2138 8.3988 14.0522C8.76806 15.3853 9.77385 16.4033 11.0786 16.7659C11.381 16.8501 11.4865 16.8611 11.9999 16.8611C12.5134 16.8611 12.6189 16.8501 12.9213 16.7659C14.226 16.4033 15.2318 15.3889 15.6011 14.0522C16.118 12.1992 15.2072 10.174 13.5086 9.41223C12.9917 9.17785 12.7209 9.11926 12.1054 9.10461C11.8065 9.09728 11.4865 9.10461 11.3986 9.11926Z" fill="#EDEBEF"/>
</svg>
