<?xml version="1.0" encoding="utf-8"?>
<!-- Generator: Adobe Illustrator 19.0.0, SVG Export Plug-In . SVG Version: 6.00 Build 0)  -->
<svg version="1.1" id="Layer_1" xmlns="http://www.w3.org/2000/svg" xmlns:xlink="http://www.w3.org/1999/xlink" x="0px" y="0px"
	 viewBox="-487 269 24 24" style="enable-background:new -487 269 24 24;" xml:space="preserve">
<style type="text/css">
	.st0{fill:#FFFFFF;}
</style>
<path class="st0" d="M-482.4,275.9c-0.5-0.3-1-0.6-1.6-0.9c1.7-1,3.3-1.9,4.8-2.9c1.1-0.7,2.3-1.4,3.4-2c0.5-0.2,1.3-0.3,1.7,0
	c1.2,0.6,2.3,1.3,3.5,1.9c1.5,0.9,3.2,1.9,4.9,3l-0.1,0.1l0.1,0.1c-1.1,0.7-2.1,1.3-3.1,1.9l0,0v0c-1.9,1.2-3.7,2.3-5.6,3.3
	c-0.3,0-0.8,0-1.1-0.2C-477.7,278.7-479.9,277.4-482.4,275.9L-482.4,275.9z M-483.5,287.8c2.4,1.6,4.9,3.2,7.3,4.6
	c0.3,0,0.5-0.2,0.6-0.3l0,0v-10c0-0.2-0.2-0.5-0.5-0.6c-1.2-0.7-2.4-1.4-3.6-2.2l4.1,12.8l-4.1-12.8c-1.5-0.9-3.1-1.9-4.7-2.8
	c0,1.2,0,2.3,0,3.5c0,2.2-0.1,4.3,0,6.3C-484.5,286.8-484,287.4-483.5,287.8z M-474.1,292C-474.1,292-474.1,292-474.1,292l0-9.8
	c0-0.3,0.2-0.6,0.5-0.8c2.7-1.7,5.4-3.3,8.4-5.1v0.2v9.8v0.2c0,0.3-0.3,0.9-0.6,1.1l-7.6,4.7c-0.1,0-0.2,0-0.3-0.1
	C-473.9,292.2-474,292.1-474.1,292z"/>
</svg>
