<svg width="24" height="24" viewBox="0 0 24 24" fill="none" xmlns="http://www.w3.org/2000/svg">
<path d="M11.1576 4.33403C10.8997 4.39192 10.4997 4.53928 10.2103 4.68138C9.78922 4.8919 9.63134 5.00768 9.20504 5.43398C8.66295 5.9708 8.40507 6.36552 8.18929 6.99181C7.49984 8.97594 8.42612 11.1127 10.3734 12.0548C11.0944 12.4021 12.2523 12.4969 13.0786 12.2811C14.6364 11.8653 15.7785 10.6285 16.0784 9.01805C16.1784 8.4707 16.1784 8.13387 16.0784 7.61284C15.8311 6.30763 15.0416 5.25504 13.868 4.67085C13.0101 4.24456 12.0733 4.12877 11.1576 4.33403Z" fill="#4B3461"/>
<path d="M8.73669 12.7758C7.46832 12.9969 6.17364 13.8389 5.4684 14.9073C5.19999 15.3126 5 15.7231 5 15.8704C5 16.1231 5.91049 17.302 6.53152 17.8598C7.85778 19.044 9.20509 19.6703 10.9998 19.9334C11.705 20.0387 12.6839 20.0176 13.447 19.8808C15.1417 19.5808 16.7679 18.7019 17.9468 17.4493C18.4626 16.8967 19.1047 16.002 19.1047 15.8283C19.1047 15.5757 18.5994 14.781 18.11 14.26C17.3574 13.4653 16.1627 12.8442 15.2259 12.7653L14.8417 12.7337L14.4049 13.0021C12.9102 13.9231 11.2366 13.9284 9.74718 13.0232C9.25246 12.7285 9.15246 12.7021 8.73669 12.7758Z" fill="#4B3461"/>
</svg>
